<svg height="512pt" viewBox="0 0 512 512" width="512pt" xmlns="http://www.w3.org/2000/svg" xmlns:xlink="http://www.w3.org/1999/xlink"><linearGradient id="a" gradientTransform="matrix(1 0 0 -1 0 -14446)" gradientUnits="userSpaceOnUse" x1="0" x2="512" y1="-14702" y2="-14702"><stop offset="0" stop-color="#00f38d"/><stop offset="1" stop-color="#009eff"/></linearGradient><path d="m512 256c0 141.386719-114.613281 256-256 256s-256-114.613281-256-256 114.613281-256 256-256 256 114.613281 256 256zm0 0" fill="url(#a)"/><g fill="#fff"><path d="m406.460938 137.015625v-42.160156l-21.925782 11.40625c-.636718.332031-64.773437 33.125-161.992187 33.125h-15v164.238281c-9.792969-6.136719-21.351563-9.695312-33.734375-9.695312-35.144532 0-63.734375 28.589843-63.734375 63.734374 0 35.140626 28.589843 63.734376 63.734375 63.734376 35.144531 0 63.734375-28.59375 63.734375-63.734376v-130.023437c65.222656-1.976563 113.160156-16.460937 139.121093-26.578125v62.792969c-9.789062-6.136719-21.351562-9.699219-33.730468-9.699219-35.144532 0-63.734375 28.59375-63.734375 63.734375 0 35.144531 28.589843 63.734375 63.734375 63.734375 35.140625 0 63.730468-28.589844 63.730468-63.734375v-178.496094c0-.8125-.078124-1.601562-.203124-2.378906zm-232.652344 254.382813c-18.601563 0-33.734375-15.132813-33.734375-33.734376 0-18.601562 15.132812-33.734374 33.734375-33.734374 18.601562 0 33.734375 15.132812 33.734375 33.734374 0 18.601563-15.132813 33.734376-33.734375 33.734376zm202.652344-222.761719c-18.101563 8.078125-67.070313 26.652343-138.917969 28.984375v-28.476563c63.710937-2.050781 112.511719-16.734375 138.917969-26.789062zm-33.527344 182.988281c-18.601563 0-33.734375-15.132812-33.734375-33.734375s15.132812-33.734375 33.734375-33.734375c18.597656 0 33.730468 15.132812 33.730468 33.734375s-15.132812 33.734375-33.730468 33.734375zm0 0"/><path d="m123.835938 255.859375s1.765624-1.023437 2.558593-1.488281c8.398438-4.917969 34.613281-22.691406 34.613281-39.367188 0-12.292968-8.324218-19.855468-18.585937-19.855468-14.3125 0-18.585937 10.472656-18.585937 14.589843 0-4.117187-4.273438-14.589843-18.585938-14.589843-10.261719 0-18.585938 7.5625-18.585938 19.855468 0 16.675782 26.210938 34.449219 34.613282 39.367188.792968.464844 2.558594 1.488281 2.558594 1.488281zm0 0"/><path d="m159.921875 141.488281c.527344.3125 1.703125 1.003907 1.703125 1.003907s1.175781-.691407 1.707031-1.003907c5.601563-3.3125 23.074219-15.28125 23.074219-26.511719 0-8.277343-5.546875-13.375-12.390625-13.375-9.539063 0-12.390625 7.054688-12.390625 9.828126 0-2.773438-2.847656-9.828126-12.390625-9.828126-6.839844 0-12.386719 5.097657-12.386719 13.375 0 11.230469 17.472656 23.199219 23.074219 26.511719zm0 0"/></g></svg>